####
#
# OBJ File Generated by Meshlab
#
####
# Object meshlab_stairs2_blue.obj
#
# Vertices: 32
# Faces: 26
#
####
mtllib ./meshlab_stairs2_blue.obj.mtl

vn 2.000000 -1.000000 -2.000000
v 1.000000 -0.500000 -1.000000 0.407843 1.000000 0.090196
vn 1.000000 -2.000000 2.000000
v 1.000000 -0.500000 1.000000 0.407843 1.000000 0.090196
vn -1.000000 -2.000000 -2.000000
v -1.000000 -0.500000 -1.000000 0.407843 1.000000 0.090196
vn -2.000000 -1.000000 1.000000
v -1.000000 -0.500000 1.000000 0.407843 1.000000 0.090196
vn 0.000000 -3.000000 -4.000000
v 0.600000 -0.500000 -1.000000 0.407843 1.000000 0.090196
vn 0.000000 -3.000000 -4.000000
v 0.200000 -0.500000 -1.000000 0.407843 1.000000 0.090196
vn 0.000000 -3.000000 -4.000000
v -0.200000 -0.500000 -1.000000 0.407843 1.000000 0.090196
vn 0.000000 -3.000000 -3.000000
v -0.600000 -0.500000 -1.000000 0.407843 1.000000 0.090196
vn 0.000000 -3.000000 4.000000
v -0.600000 -0.500000 1.000000 0.407843 1.000000 0.090196
vn 0.000000 -3.000000 4.000000
v -0.200000 -0.500000 1.000000 0.407843 1.000000 0.090196
vn 0.000000 -3.000000 4.000000
v 0.200000 -0.500000 1.000000 0.407843 1.000000 0.090196
vn 0.000000 -3.000000 4.000000
v 0.600000 -0.500000 1.000000 0.407843 1.000000 0.090196
vn -2.000000 1.000000 2.000000
v 0.600000 0.050000 1.000000 0.407843 1.000000 0.090196
vn -1.000000 2.000000 3.000000
v 0.200000 0.050000 1.000000 0.407843 1.000000 0.090196
vn -2.000000 1.000000 -3.000000
v 0.200000 0.050000 -1.000000 0.407843 1.000000 0.090196
vn -1.000000 2.000000 -2.000000
v 0.600000 0.050000 -1.000000 0.407843 1.000000 0.090196
vn -2.000000 1.000000 2.000000
v 0.200000 -0.100000 1.000000 0.407843 1.000000 0.090196
vn -1.000000 2.000000 3.000000
v -0.200000 -0.100000 1.000000 0.407843 1.000000 0.090196
vn -2.000000 1.000000 -3.000000
v -0.200000 -0.100000 -1.000000 0.407843 1.000000 0.090196
vn -1.000000 2.000000 -2.000000
v 0.200000 -0.100000 -1.000000 0.407843 1.000000 0.090196
vn -2.000000 1.000000 2.000000
v -0.200000 -0.250000 1.000000 0.407843 1.000000 0.090196
vn -1.000000 2.000000 3.000000
v -0.600000 -0.250000 1.000000 0.407843 1.000000 0.090196
vn -2.000000 1.000000 -3.000000
v -0.600000 -0.250000 -1.000000 0.407843 1.000000 0.090196
vn -1.000000 2.000000 -2.000000
v -0.200000 -0.250000 -1.000000 0.407843 1.000000 0.090196
vn -2.000000 1.000000 2.000000
v -0.600000 -0.400000 1.000000 0.407843 1.000000 0.090196
vn -1.000000 2.000000 2.000000
v -1.000000 -0.400000 1.000000 0.407843 1.000000 0.090196
vn -2.000000 1.000000 -1.000000
v -1.000000 -0.400000 -1.000000 0.407843 1.000000 0.090196
vn -1.000000 2.000000 -3.000000
v -0.600000 -0.400000 -1.000000 0.407843 1.000000 0.090196
vn 1.000000 2.000000 -1.000000
v 1.000000 0.200000 -1.000000 0.407843 1.000000 0.090196
vn 2.000000 1.000000 1.000000
v 1.000000 0.200000 1.000000 0.407843 1.000000 0.090196
vn -2.000000 1.000000 -3.000000
v 0.600000 0.200000 -1.000000 0.407843 1.000000 0.090196
vn -1.000000 2.000000 3.000000
v 0.600000 0.200000 1.000000 0.407843 1.000000 0.090196
# 32 vertices, 0 vertices normals


usemtl material_0
vt 0.000000 0.000000
vt 0.000000 0.000000
f 3/1/3 4/1/4 26/1/26 27/2/27

usemtl material_1
f 12/1/12 5/1/5 1/1/1 2/2/2

usemtl material_2
vt 0.000000 0.000000
f 2/1/2 1/1/1 29/1/29 30/3/30

usemtl material_3
vt 0.000000 -313290597067627631418196877262091976704.000000
f 29/1/29 1/1/1 5/1/5 16/2/16 31/4/31

usemtl material_4
f 8/1/8 3/1/3 27/1/27 28/3/28

usemtl material_5
vt 0.000000 -326582065729092644080417989974843981824.000000
f 24/1/24 7/1/7 8/1/8 28/3/28 23/5/23

usemtl material_6
f 20/1/20 6/1/6 7/1/7 24/3/24 19/3/19

usemtl material_7
f 16/1/16 5/1/5 6/1/6 20/2/20 15/3/15

usemtl material_8
f 4/1/4 3/1/3 8/1/8 9/2/9

usemtl material_9
f 9/1/9 8/1/8 7/1/7 10/2/10

usemtl material_10
f 10/1/10 7/1/7 6/1/6 11/2/11

usemtl material_11
f 11/1/11 6/1/6 5/1/5 12/3/12

usemtl material_12
vt 0.000000 -313145821227876765794710741782412394496.000000
f 13/1/13 12/1/12 2/1/2 30/2/30 32/6/32

usemtl material_13
f 32/1/32 31/1/31 16/1/16 13/3/13

usemtl material_14
f 17/1/17 11/1/11 12/1/12 13/2/13 14/3/14

usemtl material_15
f 14/1/14 15/1/15 20/1/20 17/2/17

usemtl material_16
f 18/1/18 19/1/19 24/1/24 21/2/21

usemtl material_17
f 22/1/22 23/1/23 28/1/28 25/2/25

usemtl material_18
f 13/1/13 16/1/16 15/1/15 14/2/14

usemtl material_19
f 17/1/17 20/1/20 19/1/19 18/2/18

usemtl material_20
f 21/1/21 24/1/24 23/1/23 22/2/22

usemtl material_21
f 25/1/25 28/1/28 27/1/27 26/2/26

usemtl material_0
f 30/1/30 29/1/29 31/1/31 32/3/32

usemtl material_1
f 21/1/21 10/1/10 11/1/11 17/3/17 18/3/18

usemtl material_22
f 25/1/25 9/1/9 10/1/10 21/2/21 22/3/22

usemtl material_23
vt 5.362686 0.000000
f 4/1/4 9/1/9 25/1/25 26/7/26
# 26 faces, 7 coords texture

# End of File
