# Blender v2.74 (sub 0) OBJ File: ''
# www.blender.org
mtllib stairs.mtl
o Box
v 1.801250 4.720300 -3.687102
v 1.801250 4.402846 -3.977734
v 1.801250 -0.241246 1.732334
v 1.801250 -0.558700 1.441702
v -1.801250 4.402846 -3.977734
v -1.801250 4.720300 -3.687102
v -1.801250 -0.558700 1.441702
v -1.801250 -0.241246 1.732334
vt 0.000000 1.000000
vt 0.000000 0.000000
vt 1.000000 0.000000
vt 1.000000 1.000000
vn 1.000000 0.000000 0.000000
vn -1.000000 0.000000 0.000000
vn 0.000000 0.675300 -0.737600
vn 0.000000 -0.675300 0.737600
vn 0.000000 0.737600 0.675300
vn 0.000000 -0.737600 -0.675300
usemtl Standard
s 1
f 1/1/1 3/2/1 4/3/1 2/4/1
f 5/1/2 7/2/2 8/3/2 6/4/2
f 5/1/3 6/2/3 1/3/3 2/4/3
f 8/1/4 7/2/4 4/3/4 3/4/4
f 6/1/5 8/2/5 3/3/5 1/4/5
f 2/1/6 4/2/6 7/3/6 5/4/6
o Stairs
v 1.612450 0.500000 0.500000
v 1.612450 0.500000 -0.500000
v 1.612450 -0.500000 0.500000
v 1.612450 -0.500000 -0.500000
v -1.612450 0.500000 -0.500000
v -1.612450 0.500000 0.500000
v -1.612450 -0.500000 -0.500000
v -1.612450 -0.500000 0.500000
v 1.612450 0.500000 -0.462600
v 1.612450 0.500000 -1.462600
v 1.612450 -0.500000 -0.462600
v 1.612450 -0.500000 -1.462600
v -1.612450 0.500000 -1.462600
v -1.612450 0.500000 -0.462600
v -1.612450 -0.500000 -1.462600
v -1.612450 -0.500000 -0.462600
v 1.612450 1.448000 -0.462600
v 1.612450 1.448000 -1.462600
v 1.612450 0.448000 -0.462600
v 1.612450 0.448000 -1.462600
v -1.612450 1.448000 -1.462600
v -1.612450 1.448000 -0.462600
v -1.612450 0.448000 -1.462600
v -1.612450 0.448000 -0.462600
v 1.612450 1.448000 -1.356900
v 1.612450 1.448000 -2.356900
v 1.612450 0.448000 -1.356900
v 1.612450 0.448000 -2.356900
v -1.612450 1.448000 -2.356900
v -1.612450 1.448000 -1.356900
v -1.612450 0.448000 -2.356900
v -1.612450 0.448000 -1.356900
v 1.612450 0.500000 -1.356900
v 1.612450 0.500000 -2.356900
v 1.612450 -0.500000 -1.356900
v 1.612450 -0.500000 -2.356900
v -1.612450 0.500000 -2.356900
v -1.612450 0.500000 -1.356900
v -1.612450 -0.500000 -2.356900
v -1.612450 -0.500000 -1.356900
v 1.612450 2.389700 -1.356900
v 1.612450 2.389700 -2.356900
v 1.612450 1.389700 -1.356900
v 1.612450 1.389700 -2.356900
v -1.612450 2.389700 -2.356900
v -1.612450 2.389700 -1.356900
v -1.612450 1.389700 -2.356900
v -1.612450 1.389700 -1.356900
v 1.612450 2.389700 -2.324800
v 1.612450 2.389700 -3.324800
v 1.612450 1.389700 -2.324800
v 1.612450 1.389700 -3.324800
v -1.612450 2.389700 -3.324800
v -1.612450 2.389700 -2.324800
v -1.612450 1.389700 -3.324800
v -1.612450 1.389700 -2.324800
v 1.612450 0.500000 -2.324800
v 1.612450 0.500000 -3.324800
v 1.612450 -0.500000 -2.324800
v 1.612450 -0.500000 -3.324800
v -1.612450 0.500000 -3.324800
v -1.612450 0.500000 -2.324800
v -1.612450 -0.500000 -3.324800
v -1.612450 -0.500000 -2.324800
v 1.612450 1.448000 -2.324800
v 1.612450 1.448000 -3.324800
v 1.612450 0.448000 -2.324800
v 1.612450 0.448000 -3.324800
v -1.612450 1.448000 -3.324800
v -1.612450 1.448000 -2.324800
v -1.612450 0.448000 -3.324800
v -1.612450 0.448000 -2.324800
v 1.612450 3.298000 -2.324800
v 1.612450 3.298000 -3.324800
v 1.612450 2.298000 -2.324800
v 1.612450 2.298000 -3.324800
v -1.612450 3.298000 -3.324800
v -1.612450 3.298000 -2.324800
v -1.612450 2.298000 -3.324800
v -1.612450 2.298000 -2.324800
v 1.612450 2.389700 -3.271000
v 1.612450 2.389700 -4.271000
v 1.612450 1.389700 -3.271000
v 1.612450 1.389700 -4.271000
v -1.612450 2.389700 -4.271000
v -1.612450 2.389700 -3.271000
v -1.612450 1.389700 -4.271000
v -1.612450 1.389700 -3.271000
v 1.612450 0.500000 -3.271000
v 1.612450 0.500000 -4.271000
v 1.612450 -0.500000 -3.271000
v 1.612450 -0.500000 -4.271000
v -1.612450 0.500000 -4.271000
v -1.612450 0.500000 -3.271000
v -1.612450 -0.500000 -4.271000
v -1.612450 -0.500000 -3.271000
v 1.612450 1.448000 -3.271000
v 1.612450 1.448000 -4.271000
v 1.612450 0.448000 -3.271000
v 1.612450 0.448000 -4.271000
v -1.612450 1.448000 -4.271000
v -1.612450 1.448000 -3.271000
v -1.612450 0.448000 -4.271000
v -1.612450 0.448000 -3.271000
v 1.612450 3.298000 -3.271000
v 1.612450 3.298000 -4.271000
v 1.612450 2.298000 -3.271000
v 1.612450 2.298000 -4.271000
v -1.612450 3.298000 -4.271000
v -1.612450 3.298000 -3.271000
v -1.612450 2.298000 -4.271000
v -1.612450 2.298000 -3.271000
v 1.612450 4.099300 -3.271000
v 1.612450 4.099300 -4.271000
v 1.612450 3.099300 -3.271000
v 1.612450 3.099300 -4.271000
v -1.612450 4.099300 -4.271000
v -1.612450 4.099300 -3.271000
v -1.612450 3.099300 -4.271000
v -1.612450 3.099300 -3.271000
vt 0.000000 1.000000
vt 0.000000 0.000000
vt 1.000000 0.000000
vt 1.000000 1.000000
vn 1.000000 0.000000 0.000000
vn -1.000000 0.000000 0.000000
vn 0.000000 1.000000 0.000000
vn 0.000000 -1.000000 0.000000
vn 0.000000 0.000000 1.000000
vn 0.000000 0.000000 -1.000000
usemtl Standard1
s 1
f 9/5/7 11/6/7 12/7/7 10/8/7
f 13/5/8 15/6/8 16/7/8 14/8/8
f 13/5/9 14/6/9 9/7/9 10/8/9
f 16/5/10 15/6/10 12/7/10 11/8/10
f 14/5/11 16/6/11 11/7/11 9/8/11
f 10/5/12 12/6/12 15/7/12 13/8/12
f 17/5/7 19/6/7 20/7/7 18/8/7
f 21/5/8 23/6/8 24/7/8 22/8/8
f 21/5/9 22/6/9 17/7/9 18/8/9
f 24/5/10 23/6/10 20/7/10 19/8/10
f 22/5/11 24/6/11 19/7/11 17/8/11
f 18/5/12 20/6/12 23/7/12 21/8/12
f 25/5/7 27/6/7 28/7/7 26/8/7
f 29/5/8 31/6/8 32/7/8 30/8/8
f 29/5/9 30/6/9 25/7/9 26/8/9
f 32/5/10 31/6/10 28/7/10 27/8/10
f 30/5/11 32/6/11 27/7/11 25/8/11
f 26/5/12 28/6/12 31/7/12 29/8/12
f 33/5/7 35/6/7 36/7/7 34/8/7
f 37/5/8 39/6/8 40/7/8 38/8/8
f 37/5/9 38/6/9 33/7/9 34/8/9
f 40/5/10 39/6/10 36/7/10 35/8/10
f 38/5/11 40/6/11 35/7/11 33/8/11
f 34/5/12 36/6/12 39/7/12 37/8/12
f 41/5/7 43/6/7 44/7/7 42/8/7
f 45/5/8 47/6/8 48/7/8 46/8/8
f 45/5/9 46/6/9 41/7/9 42/8/9
f 48/5/10 47/6/10 44/7/10 43/8/10
f 46/5/11 48/6/11 43/7/11 41/8/11
f 42/5/12 44/6/12 47/7/12 45/8/12
f 49/5/7 51/6/7 52/7/7 50/8/7
f 53/5/8 55/6/8 56/7/8 54/8/8
f 53/5/9 54/6/9 49/7/9 50/8/9
f 56/5/10 55/6/10 52/7/10 51/8/10
f 54/5/11 56/6/11 51/7/11 49/8/11
f 50/5/12 52/6/12 55/7/12 53/8/12
f 57/5/7 59/6/7 60/7/7 58/8/7
f 61/5/8 63/6/8 64/7/8 62/8/8
f 61/5/9 62/6/9 57/7/9 58/8/9
f 64/5/10 63/6/10 60/7/10 59/8/10
f 62/5/11 64/6/11 59/7/11 57/8/11
f 58/5/12 60/6/12 63/7/12 61/8/12
f 65/5/7 67/6/7 68/7/7 66/8/7
f 69/5/8 71/6/8 72/7/8 70/8/8
f 69/5/9 70/6/9 65/7/9 66/8/9
f 72/5/10 71/6/10 68/7/10 67/8/10
f 70/5/11 72/6/11 67/7/11 65/8/11
f 66/5/12 68/6/12 71/7/12 69/8/12
f 73/5/7 75/6/7 76/7/7 74/8/7
f 77/5/8 79/6/8 80/7/8 78/8/8
f 77/5/9 78/6/9 73/7/9 74/8/9
f 80/5/10 79/6/10 76/7/10 75/8/10
f 78/5/11 80/6/11 75/7/11 73/8/11
f 74/5/12 76/6/12 79/7/12 77/8/12
f 81/5/7 83/6/7 84/7/7 82/8/7
f 85/5/8 87/6/8 88/7/8 86/8/8
f 85/5/9 86/6/9 81/7/9 82/8/9
f 88/5/10 87/6/10 84/7/10 83/8/10
f 86/5/11 88/6/11 83/7/11 81/8/11
f 82/5/12 84/6/12 87/7/12 85/8/12
f 89/5/7 91/6/7 92/7/7 90/8/7
f 93/5/8 95/6/8 96/7/8 94/8/8
f 93/5/9 94/6/9 89/7/9 90/8/9
f 96/5/10 95/6/10 92/7/10 91/8/10
f 94/5/11 96/6/11 91/7/11 89/8/11
f 90/5/12 92/6/12 95/7/12 93/8/12
f 97/5/7 99/6/7 100/7/7 98/8/7
f 101/5/8 103/6/8 104/7/8 102/8/8
f 101/5/9 102/6/9 97/7/9 98/8/9
f 104/5/10 103/6/10 100/7/10 99/8/10
f 102/5/11 104/6/11 99/7/11 97/8/11
f 98/5/12 100/6/12 103/7/12 101/8/12
f 105/5/7 107/6/7 108/7/7 106/8/7
f 109/5/8 111/6/8 112/7/8 110/8/8
f 109/5/9 110/6/9 105/7/9 106/8/9
f 112/5/10 111/6/10 108/7/10 107/8/10
f 110/5/11 112/6/11 107/7/11 105/8/11
f 106/5/12 108/6/12 111/7/12 109/8/12
f 113/5/7 115/6/7 116/7/7 114/8/7
f 117/5/8 119/6/8 120/7/8 118/8/8
f 117/5/9 118/6/9 113/7/9 114/8/9
f 120/5/10 119/6/10 116/7/10 115/8/10
f 118/5/11 120/6/11 115/7/11 113/8/11
f 114/5/12 116/6/12 119/7/12 117/8/12
f 121/5/7 123/6/7 124/7/7 122/8/7
f 125/5/8 127/6/8 128/7/8 126/8/8
f 125/5/9 126/6/9 121/7/9 122/8/9
f 128/5/10 127/6/10 124/7/10 123/8/10
f 126/5/11 128/6/11 123/7/11 121/8/11
f 122/5/12 124/6/12 127/7/12 125/8/12
